<svg width="146" height="20" viewBox="0 0 146 20" fill="none" xmlns="http://www.w3.org/2000/svg">
    <path d="M24.2215 13.1775C24.2215 12.6615 24.0715 12.2595 23.7715 11.9715C23.4835 11.6835 23.0995 11.5395 22.6195 11.5395C22.1755 11.5395 21.7855 11.6535 21.4495 11.8815C21.1135 12.1095 20.8675 12.4875 20.7115 13.0155L18.6055 12.3675C18.8095 11.5755 19.2535 10.9395 19.9375 10.4595C20.6335 9.97951 21.5635 9.73951 22.7275 9.73951C23.9035 9.73951 24.8515 10.0215 25.5715 10.5855C26.3035 11.1375 26.6695 11.9655 26.6695 13.0695V16.7235C26.6695 17.1795 26.8855 17.4075 27.3175 17.4075C27.5215 17.4075 27.7135 17.3775 27.8935 17.3175L27.7495 18.8475C27.4375 19.0035 27.0475 19.0815 26.5795 19.0815C26.0635 19.0815 25.6135 18.9735 25.2295 18.7575C24.8575 18.5415 24.6055 18.2175 24.4735 17.7855C24.1855 18.2175 23.7715 18.5475 23.2315 18.7755C22.7035 18.9915 22.1575 19.0995 21.5935 19.0995C20.6815 19.0995 19.9555 18.8955 19.4155 18.4875C18.8875 18.0675 18.6235 17.4615 18.6235 16.6695C18.6235 15.9975 18.8395 15.4515 19.2715 15.0315C19.7035 14.5995 20.3215 14.3055 21.1255 14.1495L24.2215 13.5195V13.1775ZM21.0895 16.4355C21.0895 16.7355 21.1975 16.9635 21.4135 17.1195C21.6415 17.2755 21.9115 17.3535 22.2235 17.3535C22.5715 17.3535 22.8955 17.2995 23.1955 17.1915C23.4955 17.0835 23.7415 16.9035 23.9335 16.6515C24.1255 16.3875 24.2215 16.0395 24.2215 15.6075V15.0495L22.3315 15.4275C21.9235 15.5115 21.6115 15.6255 21.3955 15.7695C21.1915 15.9015 21.0895 16.1235 21.0895 16.4355Z" fill="#F2F2F2"/>
    <path d="M28.9054 18.9195V17.3355L32.9014 12.7275L33.9274 11.7015L32.4334 11.7375H28.9414V9.91951H36.6634V11.5035L32.6854 16.0935L31.6594 17.1375L33.2974 17.1015H36.8074V18.9195H28.9054Z" fill="#F2F2F2"/>
    <path d="M43.9793 13.1775C43.9793 12.6615 43.8293 12.2595 43.5293 11.9715C43.2413 11.6835 42.8573 11.5395 42.3773 11.5395C41.9333 11.5395 41.5433 11.6535 41.2073 11.8815C40.8713 12.1095 40.6253 12.4875 40.4693 13.0155L38.3633 12.3675C38.5673 11.5755 39.0113 10.9395 39.6953 10.4595C40.3913 9.97951 41.3213 9.73951 42.4853 9.73951C43.6613 9.73951 44.6093 10.0215 45.3293 10.5855C46.0613 11.1375 46.4273 11.9655 46.4273 13.0695V16.7235C46.4273 17.1795 46.6433 17.4075 47.0753 17.4075C47.2793 17.4075 47.4713 17.3775 47.6513 17.3175L47.5073 18.8475C47.1953 19.0035 46.8053 19.0815 46.3373 19.0815C45.8213 19.0815 45.3713 18.9735 44.9873 18.7575C44.6153 18.5415 44.3633 18.2175 44.2313 17.7855C43.9433 18.2175 43.5293 18.5475 42.9893 18.7755C42.4613 18.9915 41.9153 19.0995 41.3513 19.0995C40.4393 19.0995 39.7133 18.8955 39.1733 18.4875C38.6453 18.0675 38.3813 17.4615 38.3813 16.6695C38.3813 15.9975 38.5973 15.4515 39.0293 15.0315C39.4613 14.5995 40.0793 14.3055 40.8833 14.1495L43.9793 13.5195V13.1775ZM40.8473 16.4355C40.8473 16.7355 40.9553 16.9635 41.1713 17.1195C41.3993 17.2755 41.6693 17.3535 41.9813 17.3535C42.3293 17.3535 42.6533 17.2995 42.9533 17.1915C43.2533 17.0835 43.4993 16.9035 43.6913 16.6515C43.8833 16.3875 43.9793 16.0395 43.9793 15.6075V15.0495L42.0893 15.4275C41.6813 15.5115 41.3693 15.6255 41.1533 15.7695C40.9493 15.9015 40.8473 16.1235 40.8473 16.4355Z" fill="#F2F2F2"/>
    <path d="M49.1852 18.9195V9.91951H51.3272L51.4892 11.6835C51.7172 11.0715 52.0592 10.5975 52.5152 10.2615C52.9832 9.91351 53.5712 9.73951 54.2792 9.73951C54.6992 9.73951 55.0232 9.80551 55.2512 9.93751L54.9632 12.0075C54.8432 11.9715 54.6932 11.9415 54.5132 11.9175C54.3452 11.8815 54.1232 11.8635 53.8472 11.8635C53.4752 11.8635 53.1212 11.9535 52.7852 12.1335C52.4612 12.3015 52.1912 12.5655 51.9752 12.9255C51.7592 13.2735 51.6512 13.7175 51.6512 14.2575V18.9195H49.1852Z" fill="#F2F2F2"/>
    <path d="M60.0052 19.0995C59.2612 19.0995 58.5952 18.9135 58.0072 18.5415C57.4312 18.1695 56.9752 17.6415 56.6392 16.9575C56.3152 16.2615 56.1532 15.4215 56.1532 14.4375C56.1532 13.4415 56.3272 12.5955 56.6752 11.8995C57.0232 11.1915 57.4912 10.6575 58.0792 10.2975C58.6792 9.92551 59.3512 9.73951 60.0952 9.73951C60.7432 9.73951 61.3012 9.89551 61.7692 10.2075C62.2372 10.5195 62.5912 10.9335 62.8312 11.4495V5.97751H65.2972V18.9195H63.0832L62.9752 17.1735C62.7232 17.7735 62.3332 18.2475 61.8052 18.5955C61.2772 18.9315 60.6772 19.0995 60.0052 19.0995ZM60.7252 17.2095C61.3612 17.2095 61.8712 16.9635 62.2552 16.4715C62.6392 15.9675 62.8312 15.2595 62.8312 14.3475C62.8312 13.4835 62.6392 12.8175 62.2552 12.3495C61.8832 11.8695 61.3852 11.6295 60.7612 11.6295C60.0892 11.6295 59.5612 11.8695 59.1772 12.3495C58.8052 12.8175 58.6192 13.5075 58.6192 14.4195C58.6192 15.3315 58.8052 16.0275 59.1772 16.5075C59.5492 16.9755 60.0652 17.2095 60.7252 17.2095Z" fill="#F2F2F2"/>
    <path d="M81.0116 7.03951V18.9195H78.7796V12.7275L78.8876 9.25351H78.8516L75.5576 18.9195H73.5236L70.2476 9.25351H70.2116L70.3376 12.7275V18.9195H68.0876V7.03951H71.6876L73.8296 13.5195L74.5856 16.2015H74.6216L75.3956 13.5375L77.5196 7.03951H81.0116Z" fill="#F2F2F2"/>
    <path d="M87.8654 9.73951C88.7654 9.73951 89.5634 9.92551 90.2594 10.2975C90.9554 10.6695 91.4954 11.2035 91.8794 11.8995C92.2754 12.5955 92.4734 13.4355 92.4734 14.4195C92.4734 15.4035 92.2754 16.2435 91.8794 16.9395C91.4954 17.6355 90.9554 18.1695 90.2594 18.5415C89.5634 18.9135 88.7654 19.0995 87.8654 19.0995C86.9534 19.0995 86.1494 18.9135 85.4534 18.5415C84.7694 18.1695 84.2294 17.6355 83.8334 16.9395C83.4494 16.2435 83.2574 15.4035 83.2574 14.4195C83.2574 13.4355 83.4494 12.5955 83.8334 11.8995C84.2294 11.2035 84.7694 10.6695 85.4534 10.2975C86.1494 9.92551 86.9534 9.73951 87.8654 9.73951ZM87.8654 11.5755C87.1934 11.5755 86.6654 11.8155 86.2814 12.2955C85.9094 12.7635 85.7234 13.4715 85.7234 14.4195C85.7234 15.3675 85.9094 16.0815 86.2814 16.5615C86.6654 17.0295 87.1934 17.2635 87.8654 17.2635C88.5254 17.2635 89.0414 17.0295 89.4134 16.5615C89.7974 16.0815 89.9894 15.3675 89.9894 14.4195C89.9894 13.4715 89.7974 12.7635 89.4134 12.2955C89.0414 11.8155 88.5254 11.5755 87.8654 11.5755Z" fill="#F2F2F2"/>
    <path d="M94.5368 18.9195V9.91951H96.7508L96.8408 11.6115C97.1168 10.9875 97.5188 10.5195 98.0468 10.2075C98.5868 9.89551 99.2048 9.73951 99.9008 9.73951C100.837 9.73951 101.611 10.0155 102.223 10.5675C102.835 11.1075 103.141 11.9235 103.141 13.0155V18.9195H100.675V13.7175C100.675 12.9495 100.519 12.4215 100.207 12.1335C99.9068 11.8335 99.5228 11.6835 99.0548 11.6835C98.7188 11.6835 98.3888 11.7675 98.0648 11.9355C97.7528 12.0915 97.4948 12.3495 97.2908 12.7095C97.0988 13.0695 97.0028 13.5495 97.0028 14.1495V18.9195H94.5368Z" fill="#F2F2F2"/>
    <path d="M106.923 16.1655C107.403 16.1655 107.781 16.2975 108.057 16.5615C108.345 16.8255 108.489 17.1795 108.489 17.6235C108.489 18.0795 108.345 18.4395 108.057 18.7035C107.781 18.9555 107.403 19.0815 106.923 19.0815C106.431 19.0815 106.047 18.9555 105.771 18.7035C105.495 18.4395 105.357 18.0795 105.357 17.6235C105.357 17.1795 105.495 16.8255 105.771 16.5615C106.047 16.2975 106.431 16.1655 106.923 16.1655Z" fill="#F2F2F2"/>
    <path d="M114.531 9.73951C115.731 9.73951 116.661 9.99751 117.321 10.5135C117.993 11.0295 118.437 11.6535 118.653 12.3855L116.349 13.2135C116.109 12.1215 115.515 11.5755 114.567 11.5755C113.883 11.5755 113.349 11.8155 112.965 12.2955C112.593 12.7755 112.407 13.4895 112.407 14.4375C112.407 15.3975 112.599 16.1115 112.983 16.5795C113.379 17.0355 113.913 17.2635 114.585 17.2635C115.629 17.2635 116.253 16.7295 116.457 15.6615L118.689 16.3815C118.485 17.1855 118.029 17.8395 117.321 18.3435C116.625 18.8475 115.719 19.0995 114.603 19.0995C113.667 19.0995 112.845 18.9135 112.137 18.5415C111.441 18.1695 110.901 17.6355 110.517 16.9395C110.133 16.2435 109.941 15.4035 109.941 14.4195C109.941 13.4355 110.133 12.5955 110.517 11.8995C110.913 11.2035 111.453 10.6695 112.137 10.2975C112.833 9.92551 113.631 9.73951 114.531 9.73951Z" fill="#F2F2F2"/>
    <path d="M124.709 9.73951C125.609 9.73951 126.407 9.92551 127.103 10.2975C127.799 10.6695 128.339 11.2035 128.723 11.8995C129.119 12.5955 129.317 13.4355 129.317 14.4195C129.317 15.4035 129.119 16.2435 128.723 16.9395C128.339 17.6355 127.799 18.1695 127.103 18.5415C126.407 18.9135 125.609 19.0995 124.709 19.0995C123.797 19.0995 122.993 18.9135 122.297 18.5415C121.613 18.1695 121.073 17.6355 120.677 16.9395C120.293 16.2435 120.101 15.4035 120.101 14.4195C120.101 13.4355 120.293 12.5955 120.677 11.8995C121.073 11.2035 121.613 10.6695 122.297 10.2975C122.993 9.92551 123.797 9.73951 124.709 9.73951ZM124.709 11.5755C124.037 11.5755 123.509 11.8155 123.125 12.2955C122.753 12.7635 122.567 13.4715 122.567 14.4195C122.567 15.3675 122.753 16.0815 123.125 16.5615C123.509 17.0295 124.037 17.2635 124.709 17.2635C125.369 17.2635 125.885 17.0295 126.257 16.5615C126.641 16.0815 126.833 15.3675 126.833 14.4195C126.833 13.4715 126.641 12.7635 126.257 12.2955C125.885 11.8155 125.369 11.5755 124.709 11.5755Z" fill="#F2F2F2"/>
    <path d="M131.381 18.9195V9.91951H133.595L133.685 11.5395C133.985 10.9395 134.393 10.4895 134.909 10.1895C135.437 9.88951 136.019 9.73951 136.655 9.73951C137.303 9.73951 137.885 9.88951 138.401 10.1895C138.929 10.4775 139.325 10.9215 139.589 11.5215C139.865 10.9215 140.291 10.4775 140.867 10.1895C141.443 9.88951 142.037 9.73951 142.649 9.73951C143.237 9.73951 143.771 9.85951 144.251 10.0995C144.743 10.3395 145.133 10.6995 145.421 11.1795C145.709 11.6595 145.853 12.2715 145.853 13.0155V18.9195H143.387V13.5015C143.387 12.8415 143.237 12.3735 142.937 12.0975C142.649 11.8215 142.283 11.6835 141.839 11.6835C141.287 11.6835 140.819 11.8875 140.435 12.2955C140.051 12.6915 139.859 13.2855 139.859 14.0775V18.9195H137.393V13.5015C137.393 12.8415 137.243 12.3735 136.943 12.0975C136.655 11.8215 136.283 11.6835 135.827 11.6835C135.515 11.6835 135.203 11.7675 134.891 11.9355C134.591 12.1035 134.339 12.3675 134.135 12.7275C133.943 13.0875 133.847 13.5615 133.847 14.1495V18.9195H131.381Z" fill="#F2F2F2"/>
    <rect x="3.39941" width="2.87926" height="19.195" fill="#F2F2F2"/>
    <rect x="13.9565" width="2.87926" height="19.195" fill="#F2F2F2"/>
    <path d="M1 11.517L8.19814 7.67802L12.0372 11.517L18.7554 7.67802" stroke="#F14D49" stroke-width="2"/>
</svg>
