<svg width="56" height="56" viewBox="0 0 56 56" fill="none" xmlns="http://www.w3.org/2000/svg">
    <circle cx="28" cy="28" r="28" fill="#BEE710" fill-opacity="0.3"/>
    <path d="M29.25 16.75C23.0375 16.75 18 21.7875 18 28H14.25L19.1125 32.8625L19.2 33.0375L24.25 28H20.5C20.5 23.1625 24.4125 19.25 29.25 19.25C34.0875 19.25 38 23.1625 38 28C38 32.8375 34.0875 36.75 29.25 36.75C26.8375 36.75 24.65 35.7625 23.075 34.175L21.3 35.95C23.3375 37.9875 26.1375 39.25 29.25 39.25C35.4625 39.25 40.5 34.2125 40.5 28C40.5 21.7875 35.4625 16.75 29.25 16.75ZM28 23V29.25L33.35 32.425L34.25 30.9125L29.875 28.3125V23H28Z" fill="#A9CC13"/>
</svg>
