<svg width="35" height="21" viewBox="0 0 35 21" fill="none" xmlns="http://www.w3.org/2000/svg">
    <rect x="0.5" y="0.5" width="34" height="20" rx="9.5" stroke="#27AE60"/>
    <path d="M17.7 10.385C17.7 10.915 17.6117 11.4067 17.435 11.86C17.2617 12.31 17.015 12.7 16.695 13.03C16.375 13.36 15.99 13.6183 15.54 13.805C15.09 13.9883 14.59 14.08 14.04 14.08C13.4933 14.08 12.995 13.9883 12.545 13.805C12.095 13.6183 11.7083 13.36 11.385 13.03C11.065 12.7 10.8167 12.31 10.64 11.86C10.4633 11.4067 10.375 10.915 10.375 10.385C10.375 9.855 10.4633 9.365 10.64 8.915C10.8167 8.46167 11.065 8.07 11.385 7.74C11.7083 7.41 12.095 7.15333 12.545 6.97C12.995 6.78333 13.4933 6.69 14.04 6.69C14.4067 6.69 14.7517 6.73333 15.075 6.82C15.3983 6.90333 15.695 7.02333 15.965 7.18C16.235 7.33333 16.4767 7.52167 16.69 7.745C16.9067 7.965 17.09 8.21167 17.24 8.485C17.39 8.75833 17.5033 9.055 17.58 9.375C17.66 9.695 17.7 10.0317 17.7 10.385ZM16.325 10.385C16.325 9.98833 16.2717 9.63333 16.165 9.32C16.0583 9.00333 15.9067 8.735 15.71 8.515C15.5133 8.295 15.2733 8.12667 14.99 8.01C14.71 7.89333 14.3933 7.835 14.04 7.835C13.6867 7.835 13.3683 7.89333 13.085 8.01C12.805 8.12667 12.565 8.295 12.365 8.515C12.1683 8.735 12.0167 9.00333 11.91 9.32C11.8033 9.63333 11.75 9.98833 11.75 10.385C11.75 10.7817 11.8033 11.1383 11.91 11.455C12.0167 11.7683 12.1683 12.035 12.365 12.255C12.565 12.4717 12.805 12.6383 13.085 12.755C13.3683 12.8717 13.6867 12.93 14.04 12.93C14.3933 12.93 14.71 12.8717 14.99 12.755C15.2733 12.6383 15.5133 12.4717 15.71 12.255C15.9067 12.035 16.0583 11.7683 16.165 11.455C16.2717 11.1383 16.325 10.7817 16.325 10.385ZM24.9762 6.77V14H24.2862C24.1795 14 24.0895 13.9833 24.0162 13.95C23.9462 13.9133 23.8778 13.8533 23.8112 13.77L20.0362 8.95C20.0562 9.17 20.0662 9.37333 20.0662 9.56V14H18.8812V6.77H19.5862C19.6428 6.77 19.6912 6.77333 19.7312 6.78C19.7745 6.78333 19.8112 6.79333 19.8412 6.81C19.8745 6.82333 19.9062 6.845 19.9362 6.875C19.9662 6.90167 19.9995 6.93833 20.0362 6.985L23.8262 11.825C23.8162 11.7083 23.8078 11.5933 23.8012 11.48C23.7945 11.3667 23.7912 11.2617 23.7912 11.165V6.77H24.9762Z" fill="#27AE60"/>
</svg>
