<svg width="25" height="15" viewBox="0 0 16 13" fill="none" xmlns="http://www.w3.org/2000/svg">
    <path d="M2.552 0.327999C2.87733 0.327999 3.176 0.378666 3.448 0.48C3.72533 0.581333 3.96267 0.725333 4.16 0.912C4.35733 1.09867 4.50933 1.328 4.616 1.6C4.728 1.86667 4.784 2.17067 4.784 2.512C4.784 2.85333 4.728 3.16 4.616 3.432C4.50933 3.704 4.35733 3.936 4.16 4.128C3.96267 4.32 3.72533 4.46667 3.448 4.568C3.176 4.66933 2.87733 4.72 2.552 4.72C2.22133 4.72 1.91733 4.66933 1.64 4.568C1.368 4.46667 1.13067 4.32 0.928 4.128C0.730667 3.936 0.576 3.704 0.464 3.432C0.352 3.16 0.296 2.85333 0.296 2.512C0.296 2.17067 0.352 1.86667 0.464 1.6C0.576 1.328 0.730667 1.09867 0.928 0.912C1.13067 0.725333 1.368 0.581333 1.64 0.48C1.91733 0.378666 2.22133 0.327999 2.552 0.327999ZM2.552 3.568C2.78133 3.568 2.94667 3.488 3.048 3.328C3.14933 3.16267 3.2 2.89333 3.2 2.52C3.2 2.152 3.14933 1.888 3.048 1.728C2.94667 1.56267 2.78133 1.48 2.552 1.48C2.312 1.48 2.13867 1.56267 2.032 1.728C1.93067 1.888 1.88 2.152 1.88 2.52C1.88 2.89333 1.93067 3.16267 2.032 3.328C2.13867 3.488 2.312 3.568 2.552 3.568ZM14.2138 9.144C14.3471 9.144 14.4591 9.192 14.5498 9.288L15.5018 10.304C15.0324 10.9013 14.4484 11.3547 13.7498 11.664C13.0564 11.9733 12.2298 12.128 11.2698 12.128C10.4004 12.128 9.61908 11.9813 8.92575 11.688C8.23242 11.3893 7.64308 10.976 7.15775 10.448C6.67242 9.92 6.29908 9.29333 6.03775 8.568C5.77642 7.84267 5.64575 7.05067 5.64575 6.192C5.64575 5.616 5.70708 5.06933 5.82975 4.552C5.95775 4.02933 6.14175 3.54933 6.38175 3.112C6.62175 2.67467 6.90975 2.28 7.24575 1.928C7.58708 1.576 7.97108 1.27733 8.39775 1.032C8.82442 0.781333 9.28842 0.591999 9.78975 0.464C10.2964 0.330666 10.8351 0.263999 11.4058 0.263999C11.8324 0.263999 12.2351 0.301332 12.6138 0.375999C12.9978 0.450666 13.3551 0.554667 13.6858 0.688C14.0164 0.821333 14.3204 0.984 14.5978 1.176C14.8804 1.36267 15.1338 1.568 15.3578 1.792L14.5498 2.896C14.5018 2.96533 14.4404 3.02667 14.3658 3.08C14.2911 3.13333 14.1898 3.16 14.0618 3.16C13.9338 3.16 13.8031 3.11467 13.6698 3.024C13.5418 2.93333 13.3818 2.832 13.1898 2.72C13.0031 2.608 12.7658 2.50667 12.4778 2.416C12.1951 2.32533 11.8351 2.28 11.3978 2.28C10.9124 2.28 10.4671 2.368 10.0618 2.544C9.65642 2.72 9.30708 2.976 9.01375 3.312C8.72575 3.64267 8.50175 4.05067 8.34175 4.536C8.18175 5.02133 8.10175 5.57333 8.10175 6.192C8.10175 6.816 8.18708 7.37333 8.35775 7.864C8.53375 8.34933 8.77108 8.76 9.06975 9.096C9.37375 9.432 9.72575 9.688 10.1258 9.864C10.5311 10.0347 10.9631 10.12 11.4218 10.12C11.6938 10.12 11.9391 10.1067 12.1578 10.08C12.3818 10.0533 12.5871 10.008 12.7738 9.944C12.9658 9.88 13.1444 9.79733 13.3098 9.696C13.4804 9.59467 13.6511 9.46667 13.8218 9.312C13.8804 9.264 13.9418 9.224 14.0058 9.192C14.0698 9.16 14.1391 9.144 14.2138 9.144Z" fill="#27AE60"/>
</svg>
