<svg width="71" height="59" viewBox="0 0 71 59" fill="none" xmlns="http://www.w3.org/2000/svg">
    <g clip-path="url(#clip0)">
        <rect x="56" y="47" width="2" height="12" fill="#595C75"/>
        <path d="M60.2625 49.3494L54.1487 49.3494C52.7178 49.3494 51.6772 49.0835 51.6772 47.7948L51.6772 36.2045L62.734 36.2045L62.734 47.7948C62.734 49.2123 61.6934 49.3494 60.2625 49.3494Z" fill="url(#paint0_linear)"/>
        <path opacity="0.2" d="M60.2625 44.8797L54.1487 44.8797C52.7178 44.8797 51.6772 44.6138 51.6772 43.3251L51.6772 31.7348L62.734 31.7348L62.734 43.3251C62.734 44.7427 61.6934 44.8797 60.2625 44.8797Z" fill="#2D3C43"/>
        <path d="M71 26.5241L71 32.6053C71 34.0285 69.834 35.0636 68.5384 35.0636L57.7847 35.0636L57.7847 24.0658L68.5384 24.0658C69.9635 24.0658 71 25.1009 71 26.5241Z" fill="#595C75"/>
        <path opacity="0.4" d="M57.9143 24.0658L57.9143 35.0636L66.3358 35.0636L66.3358 24.0658L57.9143 24.0658Z" fill="#2D3C43"/>
        <path d="M65.1582 18.6641L65.1582 39.6136C65.1582 42.1894 63.5565 44.25 61.5544 44.25L51.6772 44.25L51.6772 13.8561L61.5544 13.8561C63.5565 14.0278 65.1582 16.0884 65.1582 18.6641Z" fill="#7C90B1"/>
        <rect opacity="0.2" x="50.7785" y="13.8561" width="1.79746" height="34.8636" fill="#2D3C43"/>
        <rect x="49.8797" y="5.81061" width="1.79747" height="43.803" fill="#7C90B1"/>
        <rect x="38.1962" y="13.8561" width="11.6835" height="30.3939" fill="#A2B7DA"/>
        <line y1="-0.5" x2="3.80285" y2="-0.5" transform="matrix(0.708995 0.705213 -0.708995 0.705213 45.3861 20.1136)" stroke="#7C90B1"/>
        <line y1="-0.5" x2="3.80285" y2="-0.5" transform="matrix(0.708995 0.705213 -0.708995 0.705213 45.3861 25.4773)" stroke="#7C90B1"/>
        <line y1="-0.5" x2="3.80285" y2="-0.5" transform="matrix(0.708995 0.705213 -0.708995 0.705213 46.2848 32.6288)" stroke="#7C90B1"/>
        <line y1="-0.5" x2="3.80285" y2="-0.5" transform="matrix(0.708996 0.705213 -0.708996 0.705213 46.2848 37.9924)" stroke="#7C90B1"/>
        <line y1="-0.5" x2="3.80285" y2="-0.5" transform="matrix(0.708995 0.705213 -0.708995 0.705213 39.9937 20.1136)" stroke="#7C90B1"/>
        <line y1="-0.5" x2="3.80285" y2="-0.5" transform="matrix(0.708995 0.705214 -0.708995 0.705214 40.8924 27.2652)" stroke="#7C90B1"/>
        <line y1="-0.5" x2="3.80285" y2="-0.5" transform="matrix(0.708995 0.705214 -0.708995 0.705214 40.8924 32.6288)" stroke="#7C90B1"/>
        <line y1="-0.5" x2="3.80285" y2="-0.5" transform="matrix(0.708995 0.705214 -0.708995 0.705214 41.7911 38.8864)" stroke="#7C90B1"/>
        <line y1="-0.5" x2="1.26762" y2="-0.5" transform="matrix(0.708994 0.705215 -0.708994 0.705215 47.1835 43.3561)" stroke="#7C90B1"/>
        <line y1="-0.5" x2="3.80285" y2="-0.5" transform="matrix(0.708995 0.705213 -0.708995 0.705213 36.3987 33.5227)" stroke="#7C90B1"/>
        <line y1="-0.5" x2="3.80285" y2="-0.5" transform="matrix(0.708995 0.705213 -0.708995 0.705213 37.2975 40.6742)" stroke="#7C90B1"/>
        <line y1="-0.5" x2="3.80284" y2="-0.5" transform="matrix(0.708995 0.705213 -0.708995 0.705213 45.3861 14.75)" stroke="#7C90B1"/>
        <line y1="-0.5" x2="3.80285" y2="-0.5" transform="matrix(0.708995 0.705213 -0.708995 0.705213 36.3987 27.2652)" stroke="#7C90B1"/>
        <line y1="-0.5" x2="3.80285" y2="-0.5" transform="matrix(0.708995 0.705214 -0.708995 0.705214 36.3987 21.9015)" stroke="#7C90B1"/>
        <rect opacity="0.4" x="48.0823" y="13.8561" width="1.79747" height="30.3939" fill="#7C90B1"/>
        <path d="M2 0L39 -9.29341e-09L39 59L2 59L2 0Z" fill="#595C75"/>
        <path opacity="0.2" d="M2 1L4.24359 56.4107L37 59L2 59L2 1Z" fill="#1B1C24"/>
        <path opacity="0.3" d="M39 57L37.6539 1.55455L4 -3.50697e-06L39 0L39 57Z" fill="#C2C9FF"/>
        <line y1="-0.5" x2="3.80285" y2="-0.5" transform="matrix(0.708996 0.705213 -0.708996 0.705213 39.9937 14.75)" stroke="#7C90B1"/>
    </g>
    <defs>
        <linearGradient id="paint0_linear" x1="62.462" y1="47.3788" x2="51.6772" y2="47.3788" gradientUnits="userSpaceOnUse">
            <stop stop-color="#7C90B1"/>
            <stop offset="0.5" stop-color="#C0CEE4"/>
            <stop offset="1" stop-color="#7C90B1"/>
        </linearGradient>
        <clipPath id="clip0">
            <rect width="59" height="71" fill="white" transform="translate(0 59) rotate(-90)"/>
        </clipPath>
    </defs>
</svg>
