<svg width="61" height="19" viewBox="0 0 61 19" fill="none" xmlns="http://www.w3.org/2000/svg">
    <path fill-rule="evenodd" clip-rule="evenodd" d="M14 8H10V2H4V8H0L7 15L14 8ZM0 17V19H14V17H0Z" fill="#A9CC13"/>
    <path d="M39.232 13.272C39.3493 13.272 39.4533 13.3173 39.544 13.408L40.392 14.328C39.9227 14.9093 39.344 15.3547 38.656 15.664C37.9733 15.9733 37.152 16.128 36.192 16.128C35.3333 16.128 34.56 15.9813 33.872 15.688C33.1893 15.3947 32.6053 14.9867 32.12 14.464C31.6347 13.9413 31.2613 13.3173 31 12.592C30.744 11.8667 30.616 11.0747 30.616 10.216C30.616 9.34667 30.7547 8.552 31.032 7.832C31.3093 7.10667 31.6987 6.48267 32.2 5.96C32.7067 5.43733 33.3093 5.032 34.008 4.744C34.7067 4.45067 35.48 4.304 36.328 4.304C37.1707 4.304 37.9173 4.44267 38.568 4.72C39.224 4.99733 39.7813 5.36 40.24 5.808L39.52 6.808C39.4773 6.872 39.4213 6.928 39.352 6.976C39.288 7.024 39.1973 7.048 39.08 7.048C39 7.048 38.9173 7.02667 38.832 6.984C38.7467 6.936 38.6533 6.88 38.552 6.816C38.4507 6.74667 38.3333 6.672 38.2 6.592C38.0667 6.512 37.912 6.44 37.736 6.376C37.56 6.30667 37.3547 6.25067 37.12 6.208C36.8907 6.16 36.624 6.136 36.32 6.136C35.8027 6.136 35.328 6.22933 34.896 6.416C34.4693 6.59733 34.1013 6.864 33.792 7.216C33.4827 7.56267 33.2427 7.98933 33.072 8.496C32.9013 8.99733 32.816 9.57067 32.816 10.216C32.816 10.8667 32.9067 11.4453 33.088 11.952C33.2747 12.4587 33.5253 12.8853 33.84 13.232C34.1547 13.5787 34.5253 13.8453 34.952 14.032C35.3787 14.2133 35.8373 14.304 36.328 14.304C36.6213 14.304 36.8853 14.288 37.12 14.256C37.36 14.224 37.5787 14.1733 37.776 14.104C37.9787 14.0347 38.168 13.9467 38.344 13.84C38.5253 13.728 38.704 13.592 38.88 13.432C38.9333 13.384 38.9893 13.3467 39.048 13.32C39.1067 13.288 39.168 13.272 39.232 13.272ZM48.0261 6.536C47.9621 6.648 47.8928 6.73067 47.8181 6.784C47.7488 6.832 47.6608 6.856 47.5541 6.856C47.4421 6.856 47.3195 6.816 47.1861 6.736C47.0581 6.65067 46.9035 6.55733 46.7221 6.456C46.5408 6.35467 46.3275 6.264 46.0821 6.184C45.8421 6.09867 45.5568 6.056 45.2261 6.056C44.9275 6.056 44.6661 6.09333 44.4421 6.168C44.2181 6.23733 44.0288 6.336 43.8741 6.464C43.7248 6.592 43.6128 6.74667 43.5381 6.928C43.4635 7.104 43.4261 7.29867 43.4261 7.512C43.4261 7.784 43.5008 8.01067 43.6501 8.192C43.8048 8.37333 44.0075 8.528 44.2581 8.656C44.5088 8.784 44.7941 8.89867 45.1141 9C45.4341 9.10133 45.7621 9.21067 46.0981 9.328C46.4341 9.44 46.7621 9.57333 47.0821 9.728C47.4021 9.87733 47.6875 10.0693 47.9381 10.304C48.1888 10.5333 48.3888 10.816 48.5381 11.152C48.6928 11.488 48.7701 11.896 48.7701 12.376C48.7701 12.8987 48.6795 13.3893 48.4981 13.848C48.3221 14.3013 48.0608 14.6987 47.7141 15.04C47.3728 15.376 46.9541 15.6427 46.4581 15.84C45.9621 16.032 45.3941 16.128 44.7541 16.128C44.3861 16.128 44.0235 16.0907 43.6661 16.016C43.3088 15.9467 42.9648 15.8453 42.6341 15.712C42.3088 15.5787 42.0021 15.4187 41.7141 15.232C41.4261 15.0453 41.1701 14.8373 40.9461 14.608L41.5781 13.576C41.6315 13.5013 41.7008 13.44 41.7861 13.392C41.8715 13.3387 41.9621 13.312 42.0581 13.312C42.1915 13.312 42.3355 13.368 42.4901 13.48C42.6448 13.5867 42.8288 13.7067 43.0421 13.84C43.2555 13.9733 43.5035 14.096 43.7861 14.208C44.0741 14.3147 44.4181 14.368 44.8181 14.368C45.4315 14.368 45.9061 14.224 46.2421 13.936C46.5781 13.6427 46.7461 13.224 46.7461 12.68C46.7461 12.376 46.6688 12.128 46.5141 11.936C46.3648 11.744 46.1648 11.584 45.9141 11.456C45.6635 11.3227 45.3781 11.2107 45.0581 11.12C44.7381 11.0293 44.4128 10.9307 44.0821 10.824C43.7515 10.7173 43.4261 10.5893 43.1061 10.44C42.7861 10.2907 42.5008 10.096 42.2501 9.856C41.9995 9.616 41.7968 9.31733 41.6421 8.96C41.4928 8.59733 41.4181 8.152 41.4181 7.624C41.4181 7.20267 41.5008 6.792 41.6661 6.392C41.8368 5.992 42.0821 5.63733 42.4021 5.328C42.7221 5.01867 43.1168 4.77067 43.5861 4.584C44.0555 4.39733 44.5941 4.304 45.2021 4.304C45.8848 4.304 46.5141 4.41067 47.0901 4.624C47.6661 4.83733 48.1568 5.136 48.5621 5.52L48.0261 6.536ZM60.325 4.432L55.653 16H53.709L49.037 4.432H50.765C50.9517 4.432 51.1037 4.47733 51.221 4.568C51.3383 4.65867 51.4263 4.776 51.485 4.92L54.213 11.976C54.3037 12.2053 54.389 12.4587 54.469 12.736C54.5543 13.008 54.6343 13.2933 54.709 13.592C54.773 13.2933 54.8423 13.008 54.917 12.736C54.9917 12.4587 55.0743 12.2053 55.165 11.976L57.877 4.92C57.9197 4.79733 58.0023 4.68533 58.125 4.584C58.253 4.48267 58.4077 4.432 58.589 4.432H60.325Z" fill="#A9CC13"/>
</svg>
