<svg width="20" height="17" viewBox="0 0 20 17" fill="none" xmlns="http://www.w3.org/2000/svg">
    <path fill-rule="evenodd" clip-rule="evenodd" d="M7.26316 16.8421C6.15859 16.8421 5.26316 15.9467 5.26316 14.8421V2C5.26316 0.895431 6.15859 0 7.26316 0H18C19.1046 0 20 0.89543 20 2V14.8421C20 15.9467 19.1046 16.8421 18 16.8421H7.26316ZM0 7.36842H3.15789V3.15789H0V7.36842ZM0 13.6842H3.15789V9.47368H0V13.6842ZM16.8421 3.15789H8.42105V6.31579H16.8421V3.15789ZM12.6316 8.42105H13.6842V10.5263H12.6316V8.42105ZM12.6316 11.5789H10.5263V10.5263H12.6316V11.5789ZM13.6842 11.5789V13.6842H12.6316V11.5789H13.6842ZM13.6842 11.5789H15.7895V10.5263H13.6842V11.5789Z" fill="#7C90B1"/>
</svg>
