<svg width="117" height="19" viewBox="0 0 117 19" fill="none" xmlns="http://www.w3.org/2000/svg">
    <path fill-rule="evenodd" clip-rule="evenodd" d="M10.5844 10.1045C10.6091 9.90709 10.6276 9.70971 10.6276 9.49998C10.6276 9.29026 10.6091 9.09288 10.5844 8.89549L11.8859 7.87772C12.0031 7.78519 12.034 7.61865 11.96 7.48294L10.7263 5.34871C10.6523 5.213 10.4857 5.16366 10.35 5.213L8.81412 5.82983C8.49336 5.5831 8.14794 5.37955 7.77167 5.22534L7.53727 3.59073C7.51877 3.44269 7.38923 3.33167 7.23503 3.33167H4.7677C4.61349 3.33167 4.48396 3.44269 4.46545 3.59073L4.23105 5.22534C3.85479 5.37955 3.50936 5.58927 3.18861 5.82983L1.6527 5.213C1.51083 5.15749 1.35045 5.213 1.27643 5.34871L0.0427659 7.48294C-0.0374222 7.61865 -0.000412285 7.78519 0.116786 7.87772L1.4183 8.89549C1.39363 9.09288 1.37512 9.29643 1.37512 9.49998C1.37512 9.70354 1.39363 9.90709 1.4183 10.1045L0.116786 11.1223C-0.000412285 11.2148 -0.0312539 11.3813 0.0427659 11.517L1.27643 13.6513C1.35045 13.787 1.51699 13.8363 1.6527 13.787L3.18861 13.1701C3.50936 13.4169 3.85479 13.6204 4.23105 13.7746L4.46545 15.4092C4.48396 15.5573 4.61349 15.6683 4.7677 15.6683H7.23503C7.38923 15.6683 7.51877 15.5573 7.53727 15.4092L7.77167 13.7746C8.14794 13.6204 8.49336 13.4107 8.81412 13.1701L10.35 13.787C10.4919 13.8425 10.6523 13.787 10.7263 13.6513L11.96 11.517C12.034 11.3813 12.0031 11.2148 11.8859 11.1223L10.5844 10.1045ZM6.00138 11.6589C4.81089 11.6589 3.84247 10.6905 3.84247 9.49998C3.84247 8.30949 4.81089 7.34107 6.00138 7.34107C7.19187 7.34107 8.16029 8.30949 8.16029 9.49998C8.16029 10.6905 7.19187 11.6589 6.00138 11.6589Z" fill="#00C09E"/>
    <path d="M25.448 6.144V9.352H29.496V11.008H25.448V14.28H30.584V16H23.288V4.432H30.584V6.144H25.448ZM32.1151 10.344H36.2591V11.992H32.1151V10.344ZM38.1479 16V7.792H39.3559C39.6119 7.792 39.7799 7.912 39.8599 8.152L39.9879 8.76C40.1319 8.6 40.2812 8.45333 40.4359 8.32C40.5959 8.18667 40.7639 8.072 40.9399 7.976C41.1212 7.88 41.3132 7.80533 41.5159 7.752C41.7239 7.69333 41.9505 7.664 42.1959 7.664C42.7132 7.664 43.1372 7.80533 43.4679 8.088C43.8039 8.36533 44.0545 8.736 44.2199 9.2C44.3479 8.928 44.5079 8.696 44.6999 8.504C44.8919 8.30667 45.1025 8.14667 45.3319 8.024C45.5612 7.90133 45.8039 7.81067 46.0599 7.752C46.3212 7.69333 46.5825 7.664 46.8439 7.664C47.2972 7.664 47.6999 7.73333 48.0519 7.872C48.4039 8.01067 48.6999 8.21333 48.9399 8.48C49.1799 8.74667 49.3612 9.072 49.4839 9.456C49.6119 9.84 49.6759 10.28 49.6759 10.776V16H47.6999V10.776C47.6999 10.2533 47.5852 9.86133 47.3559 9.6C47.1265 9.33333 46.7905 9.2 46.3479 9.2C46.1452 9.2 45.9559 9.23467 45.7799 9.304C45.6092 9.37333 45.4572 9.47467 45.3239 9.608C45.1959 9.736 45.0945 9.89867 45.0199 10.096C44.9452 10.2933 44.9079 10.52 44.9079 10.776V16H42.9239V10.776C42.9239 10.2267 42.8119 9.82667 42.5879 9.576C42.3692 9.32533 42.0465 9.2 41.6199 9.2C41.3319 9.2 41.0625 9.272 40.8119 9.416C40.5665 9.55467 40.3372 9.74667 40.1239 9.992V16H38.1479ZM55.8901 12.496C55.3195 12.5227 54.8395 12.5733 54.4501 12.648C54.0608 12.7173 53.7488 12.808 53.5141 12.92C53.2795 13.032 53.1115 13.1627 53.0101 13.312C52.9088 13.4613 52.8581 13.624 52.8581 13.8C52.8581 14.1467 52.9595 14.3947 53.1621 14.544C53.3701 14.6933 53.6395 14.768 53.9701 14.768C54.3755 14.768 54.7248 14.696 55.0181 14.552C55.3168 14.4027 55.6075 14.1787 55.8901 13.88V12.496ZM51.3621 8.936C52.3061 8.072 53.4421 7.64 54.7701 7.64C55.2501 7.64 55.6795 7.72 56.0581 7.88C56.4368 8.03467 56.7568 8.25333 57.0181 8.536C57.2795 8.81333 57.4768 9.14667 57.6101 9.536C57.7488 9.92533 57.8181 10.352 57.8181 10.816V16H56.9221C56.7355 16 56.5915 15.9733 56.4901 15.92C56.3888 15.8613 56.3088 15.7467 56.2501 15.576L56.0741 14.984C55.8661 15.1707 55.6635 15.336 55.4661 15.48C55.2688 15.6187 55.0635 15.736 54.8501 15.832C54.6368 15.928 54.4075 16 54.1621 16.048C53.9221 16.1013 53.6555 16.128 53.3621 16.128C53.0155 16.128 52.6955 16.0827 52.4021 15.992C52.1088 15.896 51.8555 15.7547 51.6421 15.568C51.4288 15.3813 51.2635 15.1493 51.1461 14.872C51.0288 14.5947 50.9701 14.272 50.9701 13.904C50.9701 13.696 51.0048 13.4907 51.0741 13.288C51.1435 13.08 51.2555 12.8827 51.4101 12.696C51.5701 12.5093 51.7755 12.3333 52.0261 12.168C52.2768 12.0027 52.5835 11.8587 52.9461 11.736C53.3141 11.6133 53.7408 11.5147 54.2261 11.44C54.7115 11.36 55.2661 11.312 55.8901 11.296V10.816C55.8901 10.2667 55.7728 9.86133 55.5381 9.6C55.3035 9.33333 54.9648 9.2 54.5221 9.2C54.2021 9.2 53.9355 9.23733 53.7221 9.312C53.5141 9.38667 53.3301 9.472 53.1701 9.568C53.0101 9.65867 52.8635 9.74133 52.7301 9.816C52.6021 9.89067 52.4581 9.928 52.2981 9.928C52.1595 9.928 52.0421 9.89333 51.9461 9.824C51.8501 9.74933 51.7728 9.664 51.7141 9.568L51.3621 8.936ZM61.7271 7.792V16H59.7431V7.792H61.7271ZM61.9991 5.4C61.9991 5.57067 61.9645 5.73067 61.8951 5.88C61.8258 6.02933 61.7325 6.16 61.6151 6.272C61.5031 6.384 61.3698 6.47467 61.2151 6.544C61.0605 6.608 60.8951 6.64 60.7191 6.64C60.5485 6.64 60.3858 6.608 60.2311 6.544C60.0818 6.47467 59.9511 6.384 59.8391 6.272C59.7271 6.16 59.6365 6.02933 59.5671 5.88C59.5031 5.73067 59.4711 5.57067 59.4711 5.4C59.4711 5.224 59.5031 5.05867 59.5671 4.904C59.6365 4.74933 59.7271 4.616 59.8391 4.504C59.9511 4.392 60.0818 4.304 60.2311 4.24C60.3858 4.17067 60.5485 4.136 60.7191 4.136C60.8951 4.136 61.0605 4.17067 61.2151 4.24C61.3698 4.304 61.5031 4.392 61.6151 4.504C61.7325 4.616 61.8258 4.74933 61.8951 4.904C61.9645 5.05867 61.9991 5.224 61.9991 5.4ZM65.7416 4.112V16H63.7656V4.112H65.7416ZM77.4938 11.632L76.0858 7.784C76.0164 7.61333 75.9444 7.41067 75.8698 7.176C75.7951 6.94133 75.7204 6.688 75.6458 6.416C75.5764 6.688 75.5044 6.944 75.4298 7.184C75.3551 7.41867 75.2831 7.624 75.2138 7.8L73.8138 11.632H77.4938ZM81.2938 16H79.6298C79.4431 16 79.2911 15.9547 79.1738 15.864C79.0564 15.768 78.9684 15.6507 78.9097 15.512L78.0458 13.152H73.2538L72.3898 15.512C72.3471 15.6347 72.2644 15.7467 72.1418 15.848C72.0191 15.9493 71.8671 16 71.6858 16H70.0057L74.5578 4.432H76.7498L81.2938 16ZM84.1635 4.112V16H82.1875V4.112H84.1635ZM88.1323 4.112V16H86.1562V4.112H88.1323ZM95.389 10.952C95.389 10.696 95.3517 10.456 95.277 10.232C95.2077 10.0027 95.101 9.80267 94.957 9.632C94.813 9.46133 94.629 9.328 94.405 9.232C94.1863 9.13067 93.9303 9.08 93.637 9.08C93.0663 9.08 92.6157 9.24267 92.285 9.568C91.9597 9.89333 91.7517 10.3547 91.661 10.952H95.389ZM91.621 12.144C91.653 12.5653 91.7277 12.9307 91.845 13.24C91.9623 13.544 92.117 13.7973 92.309 14C92.501 14.1973 92.7277 14.3467 92.989 14.448C93.2557 14.544 93.549 14.592 93.869 14.592C94.189 14.592 94.4637 14.5547 94.693 14.48C94.9277 14.4053 95.1303 14.3227 95.301 14.232C95.477 14.1413 95.629 14.0587 95.757 13.984C95.8903 13.9093 96.0183 13.872 96.141 13.872C96.3063 13.872 96.429 13.9333 96.509 14.056L97.077 14.776C96.8583 15.032 96.613 15.248 96.341 15.424C96.069 15.5947 95.7837 15.7333 95.485 15.84C95.1917 15.9413 94.8903 16.0133 94.581 16.056C94.277 16.0987 93.981 16.12 93.693 16.12C93.1223 16.12 92.5917 16.0267 92.101 15.84C91.6103 15.648 91.1837 15.368 90.821 15C90.4583 14.6267 90.173 14.168 89.965 13.624C89.757 13.0747 89.653 12.44 89.653 11.72C89.653 11.16 89.7437 10.6347 89.925 10.144C90.1063 9.648 90.365 9.21867 90.701 8.856C91.0423 8.488 91.4557 8.19733 91.941 7.984C92.4317 7.77067 92.9837 7.664 93.597 7.664C94.1143 7.664 94.5917 7.74667 95.029 7.912C95.4663 8.07733 95.8423 8.32 96.157 8.64C96.4717 8.95467 96.717 9.344 96.893 9.808C97.0743 10.2667 97.165 10.792 97.165 11.384C97.165 11.6827 97.133 11.8853 97.069 11.992C97.005 12.0933 96.8823 12.144 96.701 12.144H91.621ZM100.512 9.216C100.768 8.72533 101.072 8.34133 101.424 8.064C101.776 7.78133 102.192 7.64 102.672 7.64C103.051 7.64 103.355 7.72267 103.584 7.888L103.456 9.368C103.429 9.464 103.389 9.53333 103.336 9.576C103.288 9.61333 103.221 9.632 103.136 9.632C103.056 9.632 102.936 9.61867 102.776 9.592C102.621 9.56533 102.469 9.552 102.32 9.552C102.101 9.552 101.907 9.584 101.736 9.648C101.565 9.712 101.411 9.80533 101.272 9.928C101.139 10.0453 101.019 10.1893 100.912 10.36C100.811 10.5307 100.715 10.7253 100.624 10.944V16H98.6479V7.792H99.8079C100.011 7.792 100.152 7.82933 100.232 7.904C100.312 7.97333 100.365 8.10133 100.392 8.288L100.512 9.216ZM107.353 16.128C106.638 16.128 106.089 15.928 105.705 15.528C105.326 15.1227 105.137 14.5653 105.137 13.856V9.272H104.297C104.19 9.272 104.099 9.23733 104.025 9.168C103.95 9.09867 103.913 8.99467 103.913 8.856V8.072L105.233 7.856L105.649 5.616C105.675 5.50933 105.726 5.42667 105.801 5.368C105.875 5.30933 105.971 5.28 106.089 5.28H107.113V7.864H109.305V9.272H107.113V13.72C107.113 13.976 107.174 14.176 107.297 14.32C107.425 14.464 107.598 14.536 107.817 14.536C107.939 14.536 108.041 14.5227 108.121 14.496C108.206 14.464 108.278 14.432 108.337 14.4C108.401 14.368 108.457 14.3387 108.505 14.312C108.553 14.28 108.601 14.264 108.649 14.264C108.707 14.264 108.755 14.28 108.793 14.312C108.83 14.3387 108.87 14.3813 108.913 14.44L109.505 15.4C109.217 15.64 108.886 15.8213 108.513 15.944C108.139 16.0667 107.753 16.128 107.353 16.128ZM115.578 9.392C115.524 9.47733 115.468 9.53867 115.41 9.576C115.351 9.608 115.276 9.624 115.186 9.624C115.09 9.624 114.986 9.59733 114.874 9.544C114.767 9.49067 114.642 9.432 114.498 9.368C114.354 9.29867 114.188 9.23733 114.002 9.184C113.82 9.13067 113.604 9.104 113.354 9.104C112.964 9.104 112.658 9.18667 112.434 9.352C112.215 9.51733 112.106 9.73333 112.106 10C112.106 10.176 112.162 10.3253 112.274 10.448C112.391 10.5653 112.543 10.6693 112.73 10.76C112.922 10.8507 113.138 10.9333 113.378 11.008C113.618 11.0773 113.86 11.1547 114.106 11.24C114.356 11.3253 114.602 11.424 114.842 11.536C115.082 11.6427 115.295 11.7813 115.482 11.952C115.674 12.1173 115.826 12.3173 115.938 12.552C116.055 12.7867 116.114 13.0693 116.114 13.4C116.114 13.7947 116.042 14.16 115.898 14.496C115.759 14.8267 115.551 15.1147 115.274 15.36C114.996 15.6 114.652 15.7893 114.242 15.928C113.836 16.0613 113.367 16.128 112.834 16.128C112.551 16.128 112.274 16.1013 112.002 16.048C111.735 16 111.476 15.9307 111.226 15.84C110.98 15.7493 110.751 15.6427 110.538 15.52C110.33 15.3973 110.146 15.264 109.986 15.12L110.442 14.368C110.5 14.2773 110.57 14.208 110.65 14.16C110.73 14.112 110.831 14.088 110.954 14.088C111.076 14.088 111.191 14.1227 111.298 14.192C111.41 14.2613 111.538 14.336 111.682 14.416C111.826 14.496 111.994 14.5707 112.186 14.64C112.383 14.7093 112.631 14.744 112.93 14.744C113.164 14.744 113.364 14.7173 113.53 14.664C113.7 14.6053 113.839 14.5307 113.946 14.44C114.058 14.3493 114.138 14.2453 114.186 14.128C114.239 14.0053 114.266 13.88 114.266 13.752C114.266 13.56 114.207 13.4027 114.09 13.28C113.978 13.1573 113.826 13.0507 113.634 12.96C113.447 12.8693 113.231 12.7893 112.986 12.72C112.746 12.6453 112.498 12.5653 112.242 12.48C111.991 12.3947 111.743 12.296 111.498 12.184C111.258 12.0667 111.042 11.92 110.85 11.744C110.663 11.568 110.511 11.352 110.394 11.096C110.282 10.84 110.226 10.5307 110.226 10.168C110.226 9.832 110.292 9.512 110.426 9.208C110.559 8.904 110.754 8.64 111.01 8.416C111.271 8.18667 111.594 8.00533 111.978 7.872C112.367 7.73333 112.815 7.664 113.322 7.664C113.887 7.664 114.402 7.75733 114.866 7.944C115.33 8.13067 115.716 8.376 116.026 8.68L115.578 9.392Z" fill="#00C09E"/>
</svg>
