<svg width="93" height="19" viewBox="0 0 93 19" fill="none" xmlns="http://www.w3.org/2000/svg">
    <path fill-rule="evenodd" clip-rule="evenodd" d="M14 9H10V15H4V9H0L7 2L14 9ZM0 17V19H14V17H0Z" fill="#A9CC13"/>
    <path d="M33.448 6.144V9.352H37.496V11.008H33.448V14.28H38.584V16H31.288V4.432H38.584V6.144H33.448ZM49.8911 16H47.7471C47.5978 16 47.4778 15.9627 47.3871 15.888C47.3018 15.8133 47.2325 15.728 47.1791 15.632L44.4991 11.192C44.4565 11.3253 44.4058 11.44 44.3471 11.536L41.7791 15.632C41.7151 15.7227 41.6405 15.808 41.5551 15.888C41.4751 15.9627 41.3685 16 41.2351 16H39.2271L43.0671 10.048L39.3791 4.432H41.5231C41.6725 4.432 41.7791 4.45333 41.8431 4.496C41.9125 4.53333 41.9765 4.59733 42.0351 4.688L44.6671 8.928C44.7205 8.79467 44.7845 8.66133 44.8591 8.528L47.2751 4.728C47.3338 4.62667 47.3978 4.552 47.4671 4.504C47.5365 4.456 47.6245 4.432 47.7311 4.432H49.7871L46.0671 9.96L49.8911 16ZM54.9855 10.248C55.3802 10.248 55.7242 10.2 56.0175 10.104C56.3108 10.0027 56.5535 9.86133 56.7455 9.68C56.9428 9.49333 57.0895 9.26933 57.1855 9.008C57.2815 8.74133 57.3295 8.44533 57.3295 8.12C57.3295 7.81067 57.2815 7.53067 57.1855 7.28C57.0895 7.02933 56.9455 6.816 56.7535 6.64C56.5615 6.464 56.3188 6.33067 56.0255 6.24C55.7322 6.144 55.3855 6.096 54.9855 6.096H53.3775V10.248H54.9855ZM54.9855 4.432C55.7588 4.432 56.4282 4.52267 56.9935 4.704C57.5588 4.88533 58.0255 5.13867 58.3935 5.464C58.7615 5.78933 59.0335 6.17867 59.2095 6.632C59.3908 7.08533 59.4815 7.58133 59.4815 8.12C59.4815 8.68 59.3882 9.19467 59.2015 9.664C59.0148 10.128 58.7348 10.528 58.3615 10.864C57.9882 11.2 57.5188 11.4613 56.9535 11.648C56.3935 11.8347 55.7375 11.928 54.9855 11.928H53.3775V16H51.2255V4.432H54.9855ZM72.1638 10.216C72.1638 11.064 72.0224 11.8507 71.7398 12.576C71.4624 13.296 71.0678 13.92 70.5558 14.448C70.0438 14.976 69.4278 15.3893 68.7078 15.688C67.9878 15.9813 67.1878 16.128 66.3078 16.128C65.4331 16.128 64.6358 15.9813 63.9158 15.688C63.1958 15.3893 62.5771 14.976 62.0598 14.448C61.5478 13.92 61.1504 13.296 60.8678 12.576C60.5851 11.8507 60.4438 11.064 60.4438 10.216C60.4438 9.368 60.5851 8.584 60.8678 7.864C61.1504 7.13867 61.5478 6.512 62.0598 5.984C62.5771 5.456 63.1958 5.04533 63.9158 4.752C64.6358 4.45333 65.4331 4.304 66.3078 4.304C66.8944 4.304 67.4464 4.37333 67.9638 4.512C68.4811 4.64533 68.9558 4.83733 69.3878 5.088C69.8198 5.33333 70.2064 5.63467 70.5478 5.992C70.8944 6.344 71.1878 6.73867 71.4278 7.176C71.6678 7.61333 71.8491 8.088 71.9718 8.6C72.0998 9.112 72.1638 9.65067 72.1638 10.216ZM69.9638 10.216C69.9638 9.58133 69.8784 9.01333 69.7078 8.512C69.5371 8.00533 69.2944 7.576 68.9798 7.224C68.6651 6.872 68.2811 6.60267 67.8278 6.416C67.3798 6.22933 66.8731 6.136 66.3078 6.136C65.7424 6.136 65.2331 6.22933 64.7798 6.416C64.3318 6.60267 63.9478 6.872 63.6278 7.224C63.3131 7.576 63.0704 8.00533 62.8998 8.512C62.7291 9.01333 62.6438 9.58133 62.6438 10.216C62.6438 10.8507 62.7291 11.4213 62.8998 11.928C63.0704 12.4293 63.3131 12.856 63.6278 13.208C63.9478 13.5547 64.3318 13.8213 64.7798 14.008C65.2331 14.1947 65.7424 14.288 66.3078 14.288C66.8731 14.288 67.3798 14.1947 67.8278 14.008C68.2811 13.8213 68.6651 13.5547 68.9798 13.208C69.2944 12.856 69.5371 12.4293 69.7078 11.928C69.8784 11.4213 69.9638 10.8507 69.9638 10.216ZM77.5496 9.936C77.955 9.936 78.307 9.88533 78.6056 9.784C78.9096 9.68267 79.1576 9.544 79.3496 9.368C79.547 9.18667 79.6936 8.97333 79.7896 8.728C79.8856 8.48267 79.9336 8.21333 79.9336 7.92C79.9336 7.33333 79.739 6.88267 79.3496 6.568C78.9656 6.25333 78.3763 6.096 77.5816 6.096H76.2056V9.936H77.5496ZM83.0856 16H81.1416C80.7736 16 80.507 15.856 80.3416 15.568L77.9096 11.864C77.819 11.7253 77.7176 11.6267 77.6056 11.568C77.499 11.5093 77.339 11.48 77.1256 11.48H76.2056V16H74.0536V4.432H77.5816C78.3656 4.432 79.0376 4.51467 79.5976 4.68C80.163 4.84 80.6243 5.06667 80.9816 5.36C81.3443 5.65333 81.611 6.00533 81.7816 6.416C81.9523 6.82133 82.0376 7.26933 82.0376 7.76C82.0376 8.14933 81.979 8.51733 81.8616 8.864C81.7496 9.21067 81.5843 9.52533 81.3656 9.808C81.1523 10.0907 80.8856 10.3387 80.5656 10.552C80.251 10.7653 79.891 10.9333 79.4856 11.056C79.6243 11.136 79.7523 11.232 79.8696 11.344C79.987 11.4507 80.0936 11.5787 80.1896 11.728L83.0856 16ZM92.118 6.2H88.63V16H86.478V6.2H82.99V4.432H92.118V6.2Z" fill="#A9CC13"/>
</svg>
