<svg width="93" height="19" viewBox="0 0 93 19" fill="none" xmlns="http://www.w3.org/2000/svg">
    <path fill-rule="evenodd" clip-rule="evenodd" d="M14 8H10V2H4V8H0L7 15L14 8ZM0 17V19H14V17H0Z" fill="#A9CC13"/>
    <path d="M33.448 16H31.288V4.432H33.448V16ZM48.582 4.432V16H46.686V8.528C46.686 8.22933 46.702 7.90667 46.734 7.56L43.238 14.128C43.0727 14.4427 42.8193 14.6 42.478 14.6H42.174C41.8327 14.6 41.5793 14.4427 41.414 14.128L37.878 7.536C37.894 7.712 37.9073 7.88533 37.918 8.056C37.9287 8.22667 37.934 8.384 37.934 8.528V16H36.038V4.432H37.662C37.758 4.432 37.8407 4.43467 37.91 4.44C37.9793 4.44533 38.0407 4.45867 38.094 4.48C38.1527 4.50133 38.2033 4.536 38.246 4.584C38.294 4.632 38.3393 4.696 38.382 4.776L41.846 11.2C41.9367 11.3707 42.0193 11.5467 42.094 11.728C42.174 11.9093 42.2513 12.096 42.326 12.288C42.4007 12.0907 42.478 11.9013 42.558 11.72C42.638 11.5333 42.7233 11.3547 42.814 11.184L46.23 4.776C46.2727 4.696 46.318 4.632 46.366 4.584C46.414 4.536 46.4647 4.50133 46.518 4.48C46.5767 4.45867 46.6407 4.44533 46.71 4.44C46.7793 4.43467 46.862 4.432 46.958 4.432H48.582ZM54.923 10.248C55.3177 10.248 55.6617 10.2 55.955 10.104C56.2483 10.0027 56.491 9.86133 56.683 9.68C56.8803 9.49333 57.027 9.26933 57.123 9.008C57.219 8.74133 57.267 8.44533 57.267 8.12C57.267 7.81067 57.219 7.53067 57.123 7.28C57.027 7.02933 56.883 6.816 56.691 6.64C56.499 6.464 56.2563 6.33067 55.963 6.24C55.6697 6.144 55.323 6.096 54.923 6.096H53.315V10.248H54.923ZM54.923 4.432C55.6963 4.432 56.3657 4.52267 56.931 4.704C57.4963 4.88533 57.963 5.13867 58.331 5.464C58.699 5.78933 58.971 6.17867 59.147 6.632C59.3283 7.08533 59.419 7.58133 59.419 8.12C59.419 8.68 59.3257 9.19467 59.139 9.664C58.9523 10.128 58.6723 10.528 58.299 10.864C57.9257 11.2 57.4563 11.4613 56.891 11.648C56.331 11.8347 55.675 11.928 54.923 11.928H53.315V16H51.163V4.432H54.923ZM72.1013 10.216C72.1013 11.064 71.9599 11.8507 71.6773 12.576C71.3999 13.296 71.0053 13.92 70.4933 14.448C69.9813 14.976 69.3653 15.3893 68.6453 15.688C67.9253 15.9813 67.1253 16.128 66.2453 16.128C65.3706 16.128 64.5733 15.9813 63.8533 15.688C63.1333 15.3893 62.5146 14.976 61.9973 14.448C61.4853 13.92 61.0879 13.296 60.8053 12.576C60.5226 11.8507 60.3813 11.064 60.3813 10.216C60.3813 9.368 60.5226 8.584 60.8053 7.864C61.0879 7.13867 61.4853 6.512 61.9973 5.984C62.5146 5.456 63.1333 5.04533 63.8533 4.752C64.5733 4.45333 65.3706 4.304 66.2453 4.304C66.8319 4.304 67.3839 4.37333 67.9013 4.512C68.4186 4.64533 68.8933 4.83733 69.3253 5.088C69.7573 5.33333 70.1439 5.63467 70.4853 5.992C70.8319 6.344 71.1253 6.73867 71.3653 7.176C71.6053 7.61333 71.7866 8.088 71.9093 8.6C72.0373 9.112 72.1013 9.65067 72.1013 10.216ZM69.9013 10.216C69.9013 9.58133 69.8159 9.01333 69.6453 8.512C69.4746 8.00533 69.2319 7.576 68.9173 7.224C68.6026 6.872 68.2186 6.60267 67.7653 6.416C67.3173 6.22933 66.8106 6.136 66.2453 6.136C65.6799 6.136 65.1706 6.22933 64.7173 6.416C64.2693 6.60267 63.8853 6.872 63.5653 7.224C63.2506 7.576 63.0079 8.00533 62.8373 8.512C62.6666 9.01333 62.5813 9.58133 62.5813 10.216C62.5813 10.8507 62.6666 11.4213 62.8373 11.928C63.0079 12.4293 63.2506 12.856 63.5653 13.208C63.8853 13.5547 64.2693 13.8213 64.7173 14.008C65.1706 14.1947 65.6799 14.288 66.2453 14.288C66.8106 14.288 67.3173 14.1947 67.7653 14.008C68.2186 13.8213 68.6026 13.5547 68.9173 13.208C69.2319 12.856 69.4746 12.4293 69.6453 11.928C69.8159 11.4213 69.9013 10.8507 69.9013 10.216ZM77.4871 9.936C77.8925 9.936 78.2445 9.88533 78.5431 9.784C78.8471 9.68267 79.0951 9.544 79.2871 9.368C79.4845 9.18667 79.6311 8.97333 79.7271 8.728C79.8231 8.48267 79.8711 8.21333 79.8711 7.92C79.8711 7.33333 79.6765 6.88267 79.2871 6.568C78.9031 6.25333 78.3138 6.096 77.5191 6.096H76.1431V9.936H77.4871ZM83.0231 16H81.0791C80.7111 16 80.4445 15.856 80.2791 15.568L77.8471 11.864C77.7565 11.7253 77.6551 11.6267 77.5431 11.568C77.4365 11.5093 77.2765 11.48 77.0631 11.48H76.1431V16H73.9911V4.432H77.5191C78.3031 4.432 78.9751 4.51467 79.5351 4.68C80.1005 4.84 80.5618 5.06667 80.9191 5.36C81.2818 5.65333 81.5485 6.00533 81.7191 6.416C81.8898 6.82133 81.9751 7.26933 81.9751 7.76C81.9751 8.14933 81.9165 8.51733 81.7991 8.864C81.6871 9.21067 81.5218 9.52533 81.3031 9.808C81.0898 10.0907 80.8231 10.3387 80.5031 10.552C80.1885 10.7653 79.8285 10.9333 79.4231 11.056C79.5618 11.136 79.6898 11.232 79.8071 11.344C79.9245 11.4507 80.0311 11.5787 80.1271 11.728L83.0231 16ZM92.0555 6.2H88.5675V16H86.4155V6.2H82.9275V4.432H92.0555V6.2Z" fill="#A9CC13"/>
</svg>
