<svg width="64" height="19" viewBox="0 0 64 19" fill="none" xmlns="http://www.w3.org/2000/svg">
    <path fill-rule="evenodd" clip-rule="evenodd" d="M14 8H10V2H4V8H0L7 15L14 8ZM0 17V19H14V17H0Z" fill="#A9CC13"/>
    <path d="M35.048 10.248C35.4427 10.248 35.7867 10.2 36.08 10.104C36.3733 10.0027 36.616 9.86133 36.808 9.68C37.0053 9.49333 37.152 9.26933 37.248 9.008C37.344 8.74133 37.392 8.44533 37.392 8.12C37.392 7.81067 37.344 7.53067 37.248 7.28C37.152 7.02933 37.008 6.816 36.816 6.64C36.624 6.464 36.3813 6.33067 36.088 6.24C35.7947 6.144 35.448 6.096 35.048 6.096H33.44V10.248H35.048ZM35.048 4.432C35.8213 4.432 36.4907 4.52267 37.056 4.704C37.6213 4.88533 38.088 5.13867 38.456 5.464C38.824 5.78933 39.096 6.17867 39.272 6.632C39.4533 7.08533 39.544 7.58133 39.544 8.12C39.544 8.68 39.4507 9.19467 39.264 9.664C39.0773 10.128 38.7973 10.528 38.424 10.864C38.0507 11.2 37.5813 11.4613 37.016 11.648C36.456 11.8347 35.8 11.928 35.048 11.928H33.44V16H31.288V4.432H35.048ZM50.9463 4.432V16H49.8423C49.6716 16 49.5276 15.9733 49.4103 15.92C49.2983 15.8613 49.1889 15.7653 49.0823 15.632L43.0423 7.92C43.0743 8.272 43.0903 8.59733 43.0903 8.896V16H41.1943V4.432H42.3223C42.4129 4.432 42.4903 4.43733 42.5543 4.448C42.6236 4.45333 42.6823 4.46933 42.7303 4.496C42.7836 4.51733 42.8343 4.552 42.8823 4.6C42.9303 4.64267 42.9836 4.70133 43.0423 4.776L49.1063 12.52C49.0903 12.3333 49.0769 12.1493 49.0663 11.968C49.0556 11.7867 49.0503 11.6187 49.0503 11.464V4.432H50.9463ZM63.0584 10.2V14.88C62.4717 15.312 61.845 15.6293 61.1784 15.832C60.517 16.0293 59.8077 16.128 59.0504 16.128C58.1064 16.128 57.2504 15.9813 56.4824 15.688C55.7197 15.3947 55.0664 14.9867 54.5224 14.464C53.9837 13.9413 53.5677 13.3173 53.2744 12.592C52.981 11.8667 52.8344 11.0747 52.8344 10.216C52.8344 9.34667 52.9757 8.54933 53.2584 7.824C53.541 7.09867 53.941 6.47467 54.4584 5.952C54.981 5.42933 55.613 5.024 56.3544 4.736C57.0957 4.448 57.9277 4.304 58.8504 4.304C59.3197 4.304 59.757 4.34133 60.1624 4.416C60.573 4.49067 60.9517 4.59467 61.2984 4.728C61.6504 4.856 61.9704 5.01333 62.2584 5.2C62.5464 5.38667 62.8104 5.592 63.0504 5.816L62.4344 6.792C62.3384 6.94667 62.213 7.04267 62.0584 7.08C61.9037 7.112 61.7357 7.072 61.5544 6.96C61.3784 6.85867 61.2024 6.75733 61.0264 6.656C60.8504 6.55467 60.653 6.46667 60.4344 6.392C60.221 6.31733 59.9784 6.256 59.7064 6.208C59.4397 6.16 59.1304 6.136 58.7784 6.136C58.2077 6.136 57.6904 6.232 57.2264 6.424C56.7677 6.616 56.3757 6.89067 56.0504 7.248C55.725 7.60533 55.4744 8.03467 55.2984 8.536C55.1224 9.03733 55.0344 9.59733 55.0344 10.216C55.0344 10.8773 55.1277 11.4693 55.3144 11.992C55.5064 12.5093 55.773 12.9493 56.1144 13.312C56.461 13.6693 56.877 13.944 57.3624 14.136C57.8477 14.3227 58.389 14.416 58.9864 14.416C59.413 14.416 59.7944 14.3707 60.1304 14.28C60.4664 14.1893 60.7944 14.0667 61.1144 13.912V11.816H59.6584C59.5197 11.816 59.4104 11.7787 59.3304 11.704C59.2557 11.624 59.2184 11.528 59.2184 11.416V10.2H63.0584Z" fill="#A9CC13"/>
</svg>
