<svg width="57" height="68" viewBox="0 0 57 68" fill="none" xmlns="http://www.w3.org/2000/svg">
    <g clip-path="url(#clip0)">
        <path d="M31.375 68H25.5C24.125 68 23.125 66.8832 23.125 65.6423V55.3431H33.75V65.6423C33.75 67.0073 32.75 68 31.375 68Z" fill="#7C90B1"/>
        <path opacity="0.4" d="M33.75 55.4672H23.125V63.5329H33.75V55.4672Z" fill="#2D3C43"/>
        <path d="M36.125 62.1679H20.875C19 62.1679 17.5 60.6788 17.5 58.8175V49.635H39.625V58.8175C39.5 60.6788 38 62.1679 36.125 62.1679Z" fill="#7C90B1"/>
        <path opacity="0.3" d="M17.375 55.9635C20.75 57.3285 24.5 58.1971 28.375 58.1971C32.25 58.1971 36 57.4526 39.375 55.9635V49.635H17.375V55.9635Z" fill="#2D3C43"/>
        <path d="M28.5 56.5839C44.2401 56.5839 57 43.9172 57 28.292C57 12.6667 44.2401 0 28.5 0C12.7599 0 0 12.6667 0 28.292C0 43.9172 12.7599 56.5839 28.5 56.5839Z" fill="#595C75"/>
        <path opacity="0.2" d="M29.125 54.4745C13.375 54.4745 0.625 41.8175 0.625 26.1825C0.625 23.7007 1 21.219 1.625 18.9854C0.625 21.8394 0 24.9416 0 28.292C0 43.927 12.75 56.5839 28.5 56.5839C41.75 56.5839 52.75 47.6496 56 35.6131C52.125 46.5328 41.5 54.4745 29.125 54.4745Z" fill="#1B1C24"/>
        <path opacity="0.3" d="M27.875 1.11679C43.5 1.11679 56.25 13.7737 56.25 29.4088C56.25 34.2482 55 38.7153 52.875 42.6861C55.375 38.4672 56.875 33.6277 56.875 28.292C57 12.6569 44.25 0 28.5 0C17.625 0 8.125 6.08029 3.375 15.0146C8.25 6.70073 17.375 1.11679 27.875 1.11679Z" fill="#C2C9FF"/>
        <path d="M45.3045 44.9361C54.5793 35.7289 54.5793 20.8012 45.3045 11.594C36.0296 2.38684 20.9921 2.38684 11.7172 11.594C2.44235 20.8012 2.44235 35.7289 11.7172 44.9361C20.9921 54.1433 36.0296 54.1433 45.3045 44.9361Z" fill="#E6E9FF"/>
        <path opacity="0.3" d="M31.75 29.0365C31.75 30.8978 30.25 32.2628 28.5 32.2628C26.625 32.2628 25.25 30.7737 25.25 29.0365C25.25 27.1752 26.75 25.8102 28.5 25.8102C30.25 25.6861 31.75 27.1752 31.75 29.0365Z" fill="#3C3E4F"/>
        <path d="M15.125 44.0511L18.125 41.4374C14.625 38.4593 11.5114 33.2555 11.5114 28.292C11.5114 19.4817 19.625 11.4239 28.5 11.4239C37.375 11.4239 45.4886 19.4817 45.4886 28.292C45.4886 33.2555 42.375 39.3201 38.875 42.2982L41.875 44.0511C46.375 40.2044 49.25 34.6204 49.25 28.292C49.25 16.8759 39.875 7.69343 28.5 7.69343C17 7.69343 7.75001 17 7.75001 28.292C7.62501 34.6204 10.5 40.3285 15.125 44.0511Z" fill="url(#paint0_linear)"/>
        <path opacity="0.3" d="M38.5 16.6277L38.875 16.8759L36 21.0949L25.125 35.4891L24.25 34.7445L35.125 20.4745L38.5 16.6277Z" fill="#7C90B1"/>
        <path d="M31.75 28.292C31.75 30.1533 30.25 31.5182 28.5 31.5182C26.625 31.5182 25.25 30.0292 25.25 28.292C25.25 26.4307 26.75 25.0657 28.5 25.0657C30.25 24.9416 31.75 26.4307 31.75 28.292Z" fill="#F14D49"/>
        <path d="M38.875 15.511L38.5 15.2628L35.125 19.1095L23 34.8686L23.375 35.1168L23.625 35.2409L23.875 35.4891L36 19.7299L38.875 15.511Z" fill="#F14D49"/>
        <path opacity="0.3" d="M28.5 4.71533C22.25 4.71533 16.625 7.07299 12.375 11.0438C12.375 11.292 12.375 11.6642 12.375 11.9124C12.375 24.9416 23 35.4891 36.125 35.4891C42.375 35.4891 48 33.1314 52.25 29.1606C52.25 28.9124 52.25 28.5402 52.25 28.292C52.25 15.2628 41.625 4.71533 28.5 4.71533Z" fill="white"/>
    </g>
    <defs>
        <linearGradient id="paint0_linear" x1="49.2273" y1="30.557" x2="7.7728" y2="30.9902" gradientUnits="userSpaceOnUse">
            <stop stop-color="#F14D49"/>
            <stop offset="0.505208" stop-color="#FFD362"/>
            <stop offset="1" stop-color="#27AE60"/>
        </linearGradient>
        <clipPath id="clip0">
            <rect width="57" height="68" fill="white"/>
        </clipPath>
    </defs>
</svg>
