<svg width="69" height="76" viewBox="0 0 69 76" fill="none" xmlns="http://www.w3.org/2000/svg">
    <g opacity="0.5">
        <rect x="11.6666" y="0.381073" width="56.619" height="74.7692" rx="4" fill="#595C75"/>
        <path opacity="0.2" d="M14.4286 5.91953L17.6126 65.4629C17.7199 67.4701 19.3002 69.0859 21.3045 69.2378L62.7619 72.3811L19.4286 72.3811C16.6672 72.3811 14.4286 70.1425 14.4286 67.3811L14.4286 5.91953Z" fill="#1B1C24"/>
        <rect x="18.5714" y="8.68875" width="24.8571" height="23.5385" fill="#EDF0FF"/>
        <path d="M18.5714 8.68875L18.9636 10.1633C21.7863 20.7765 30.1826 28.9992 40.8526 31.5994L43.4286 32.2272H18.5714V8.68875Z" fill="#E5E9FF"/>
        <rect x="46.1904" y="16.9965" width="5.52381" height="5.53846" fill="white"/>
        <rect x="46.1904" y="26.6888" width="5.52381" height="5.53846" fill="white"/>
        <rect x="58.619" y="34.9965" width="2.7619" height="8.30769" fill="#27AE60"/>
        <rect x="55.8571" y="41.9195" width="2.76923" height="6.90476" transform="rotate(-90 55.8571 41.9195)" fill="#27AE60"/>
        <rect x="57.238" y="23.9195" width="5.52381" height="5.53846" rx="2.7619" fill="#F14D49"/>
        <rect x="21.3333" y="36.3811" width="5.52381" height="5.53846" fill="white"/>
        <rect x="29.619" y="36.3811" width="5.52381" height="5.53846" fill="white"/>
        <rect x="37.9048" y="36.3811" width="5.52381" height="5.53846" fill="white"/>
        <rect x="0.619019" y="8.68875" width="4.14286" height="26.3077" fill="#7C90B1"/>
        <rect x="0.619019" y="8.68875" width="8.28571" height="2.76923" fill="#7C90B1"/>
        <rect x="0.619019" y="19.7657" width="8.28571" height="2.76923" fill="#7C90B1"/>
        <rect x="0.619019" y="32.2272" width="8.28571" height="2.76923" fill="#7C90B1"/>
        <rect x="0.619019" y="40.5349" width="4.14286" height="26.3077" fill="#7C90B1"/>
        <rect x="0.619019" y="40.5349" width="8.28571" height="2.76923" fill="#7C90B1"/>
        <rect x="0.619019" y="51.6118" width="8.28571" height="2.76923" fill="#7C90B1"/>
        <rect x="0.619019" y="64.0734" width="8.28571" height="2.76923" fill="#7C90B1"/>
    </g>
</svg>
