<svg width="16" height="17" viewBox="0 0 16 17" fill="none" xmlns="http://www.w3.org/2000/svg">
    <path fill-rule="evenodd" clip-rule="evenodd" d="M3.74863 15.1642C2.59822 15.1642 1.66606 14.2321 1.66606 13.0817C1.66606 12.2286 2.18087 11.4964 2.9156 11.1749V6.00091H4.58166V11.1749C5.3164 11.4964 5.83121 12.2286 5.83121 13.0817C5.83121 14.2321 4.89905 15.1642 3.74863 15.1642ZM6.24772 2.66879C6.24772 1.28846 5.12896 0.169703 3.74863 0.169703C2.3683 0.169703 1.24954 1.28846 1.24954 2.66879V10.306C0.488155 10.9916 0 11.9754 0 13.0817C0 15.1517 1.67855 16.8303 3.74863 16.8303C5.81871 16.8303 7.49727 15.1517 7.49727 13.0817C7.49727 11.9754 7.00911 10.9916 6.24772 10.306V2.66879Z" fill="#27AE60"/>
    <path fill-rule="evenodd" clip-rule="evenodd" d="M16 12.9092L12.0789 16.8303L8.15784 12.9092L9.33574 11.7313L11.2459 13.6415V8.15512H12.9119V13.6415L14.8221 11.7313L16 12.9092Z" fill="#27AE60"/>
    <path fill-rule="evenodd" clip-rule="evenodd" d="M11.2459 5.65597H12.912V7.32203H11.2459V5.65597Z" fill="#27AE60"/>
    <path fill-rule="evenodd" clip-rule="evenodd" d="M11.2459 3.15686H12.912V4.82292H11.2459V3.15686Z" fill="#27AE60"/>
    <path fill-rule="evenodd" clip-rule="evenodd" d="M11.2459 0.657784H12.912V2.32384H11.2459V0.657784Z" fill="#27AE60"/>
</svg>
