<svg width="25" height="83" viewBox="0 0 25 83" fill="none" xmlns="http://www.w3.org/2000/svg">
    <path d="M20.6768 79.7193C25.1913 75.3578 25.1913 68.2865 20.6768 63.925C16.1624 59.5635 8.84294 59.5635 4.32847 63.925C-0.186 68.2865 -0.185997 75.3578 4.32848 79.7193C8.84295 84.0808 16.1624 84.0808 20.6768 79.7193Z" fill="#595C75"/>
    <path d="M4 69V7.79066C4 4.59717 7.81234 0 12.5 0C17.1877 0 21 4.59717 21 7.79066V69H4Z" fill="#595C75"/>
    <path opacity="0.2" d="M8.89552 80.7151C4.76398 79.2973 1.51915 75.5 2.5 69C2.6865 67.7641 3.22751 64.6513 4.5 63.5C3.05851 64.6925 2.17424 66.4074 1.51915 68.3164C-0.446586 73.8943 2.7094 80.0388 8.52753 82.0354C12.5448 83.414 16.8007 82.4429 19.6522 79.8486C16.8307 82.2051 12.7743 82.0461 8.89552 80.7151Z" fill="#1B1C24"/>
    <path d="M18.0029 77.0333C20.9818 74.1552 20.9818 69.489 18.0029 66.611C15.0239 63.733 10.194 63.733 7.21507 66.611C4.2361 69.489 4.2361 74.1552 7.21507 77.0333C10.194 79.9113 15.0239 79.9113 18.0029 77.0333Z" fill="#EEF1FF"/>
    <path d="M8 68V10.2871C8 7.37133 10.0183 5 12.5 5C14.9817 5 17 7.37133 17 10.2871V68H8Z" fill="#EEF1FF"/>
    <path fill-rule="evenodd" clip-rule="evenodd" d="M9 11H16V19H9V11ZM16 20H9V27H16V20ZM9 28H16V35H9V28ZM16 36H9V43H16V36ZM16 44H9V51H16V44ZM9 52H16V60H9V52ZM16.0234 66.6255V61H8.97655V66.6255C7.18345 67.725 6 69.6428 6 71.8205C6 75.2341 8.90931 78 12.5 78C16.0907 78 19 75.2341 19 71.8205C19 69.6385 17.8121 67.725 16.0234 66.6255Z" fill="url(#paint0_linear)"/>
    <path d="M12.5 6C10.5674 6 9 7.79135 9 10H16C16 7.79135 14.4326 6 12.5 6Z" fill="#CCC1E0"/>
    <path opacity="0.4" d="M8.00001 74C5.97314 70.6219 8.66668 68.5 10 68C7.99999 75.5 16 75 16 75C16 75 11 79 8.00001 74Z" fill="white"/>
    <defs>
        <linearGradient id="paint0_linear" x1="12" y1="10" x2="9.20674" y2="76.8415" gradientUnits="userSpaceOnUse">
            <stop stop-color="#F14D49"/>
            <stop offset="0.505208" stop-color="#FFD362"/>
            <stop offset="1" stop-color="#27AE60"/>
        </linearGradient>
    </defs>
</svg>
