<svg width="56" height="56" viewBox="0 0 56 56" fill="none" xmlns="http://www.w3.org/2000/svg">
    <circle cx="28" cy="28" r="28" fill="#BEE710" fill-opacity="0.3"/>
    <path d="M35.7778 18H20.2222C18.9889 18 18 19 18 20.2222V35.7778C18 37 18.9889 38 20.2222 38H35.7778C37 38 38 37 38 35.7778V20.2222C38 19 37.0111 18 35.7778 18ZM35.7778 35.7778H20.2222V22.4444H35.7778V35.7778ZM29.6667 29.1111C29.6667 30.0333 28.9222 30.7778 28 30.7778C27.0778 30.7778 26.3333 30.0333 26.3333 29.1111C26.3333 28.1889 27.0778 27.4444 28 27.4444C28.9222 27.4444 29.6667 28.1889 29.6667 29.1111ZM28 24.6667C24.9667 24.6667 22.3778 26.5111 21.3333 29.1111C22.3778 31.7111 24.9667 33.5556 28 33.5556C31.0333 33.5556 33.6222 31.7111 34.6667 29.1111C33.6222 26.5111 31.0333 24.6667 28 24.6667ZM28 31.8889C26.4667 31.8889 25.2222 30.6444 25.2222 29.1111C25.2222 27.5778 26.4667 26.3333 28 26.3333C29.5333 26.3333 30.7778 27.5778 30.7778 29.1111C30.7778 30.6444 29.5333 31.8889 28 31.8889Z" fill="#A9CC13"/>
</svg>
